<svg viewBox="0 0 200 200" xmlns="http://www.w3.org/2000/svg">
  <defs>
    <linearGradient id="gradient1" x1="0%" y1="0%" x2="100%" y2="100%">
      <stop offset="0%" style="stop-color:#c44cc4;stop-opacity:1" />
      <stop offset="100%" style="stop-color:#6f86ff;stop-opacity:1" />
    </linearGradient>
    <linearGradient id="gradient2" x1="100%" y1="0%" x2="0%" y2="100%">
      <stop offset="0%" style="stop-color:#6f86ff;stop-opacity:1" />
      <stop offset="100%" style="stop-color:#c44cc4;stop-opacity:1" />
    </linearGradient>
  </defs>
  
  <!-- Main shape - abstract curved design -->
  <path d="M100 20 
           C140 30, 170 60, 180 100
           C170 140, 140 170, 100 180
           C80 160, 70 130, 80 100
           C90 70, 100 20, 100 20 Z" 
        fill="url(#gradient1)" 
        opacity="0.9"/>
  
  <path d="M100 180
           C60 170, 30 140, 20 100
           C30 60, 60 30, 100 20
           C120 40, 130 70, 120 100
           C110 130, 100 180, 100 180 Z" 
        fill="url(#gradient2)" 
        opacity="0.7"/>
  
  <!-- Center circle for balance -->
  <circle cx="100" cy="100" r="15" fill="white" opacity="0.3"/>
</svg>